<?xml version="1.0" encoding="utf-8"?>
<!-- Generator: Adobe Illustrator 21.0.0, SVG Export Plug-In . SVG Version: 6.00 Build 0)  -->
<svg version="1.1" id="Layer_1" xmlns="http://www.w3.org/2000/svg" xmlns:xlink="http://www.w3.org/1999/xlink" x="0px" y="0px"
	 viewBox="0 0 512 512" enable-background="new 0 0 512 512" xml:space="preserve">
<path fill="none" stroke="#000000" stroke-width="5" stroke-linecap="round" d="M308.9,361.2H195.6c-6.4,0-11.6-5.2-11.6-11.6V209.6
	c0-6.4,5.2-11.6,11.6-11.6h113.3c6.4,0,11.6,5.2,11.6,11.6v140.1C320.5,356.1,315.3,361.2,308.9,361.2z"/>
<path fill="none" stroke="#000000" stroke-width="5" stroke-linecap="round" d="M266,405h-27.5c-4.1,0-7.3-3.3-7.3-7.3v-36.4h42.2
	v36.4C273.4,401.7,270.1,405,266,405z"/>
<path fill="none" stroke="#000000" stroke-width="5" stroke-linecap="round" d="M270.2,227.5l-42.6,53.1c-0.1,0.1,0,0.3,0.1,0.3
	h18.9c0.1,0,0.2,0.1,0.1,0.2l-12.6,36.7c-0.1,0.2,0.2,0.3,0.3,0.1l42.6-53.2c0.1-0.1,0-0.3-0.1-0.3H259c-0.1,0-0.2-0.1-0.1-0.2
	l11.6-36.6C270.5,227.5,270.3,227.4,270.2,227.5z"/>
<path fill="none" stroke="#000000" stroke-width="5" stroke-linecap="round" d="M264.9,198h-25.3v-21.1c0-0.2,0.2-0.4,0.4-0.4h24.5
	c0.2,0,0.4,0.2,0.4,0.4V198z"/>
<path fill="none" stroke="#000000" stroke-width="5" stroke-linecap="round" d="M239.7,176.4l4.1-10.9c0-0.1,0-0.3-0.2-0.3
	l-14.9-6.1c-0.2-0.1-0.2-0.4,0-0.5l14.5-6.7c0.2-0.1,0.2-0.4,0-0.5l-14.6-7.4c-0.2-0.1-0.2-0.4,0-0.5l14.5-4.1
	c0.2-0.1,0.3-0.3,0.1-0.5l-17.1-8.8c-0.2-0.1-0.2-0.3,0-0.4l25.4-17.2c0.4-0.2,0.9-0.2,1.3,0l25.4,17.2c0.2,0.1,0.2,0.3,0,0.4
	l-17.1,8.8c-0.2,0.1-0.1,0.4,0.1,0.5l14.5,4.1c0.2,0.1,0.3,0.4,0,0.5l-14.6,7.4c-0.2,0.1-0.2,0.4,0,0.5l14.5,6.7
	c0.2,0.1,0.2,0.4,0,0.5l-14.9,6.1c-0.1,0-0.2,0.2-0.2,0.3l4.1,10.9"/>
<line fill="none" stroke="#000000" stroke-width="5" stroke-linecap="round" x1="249.9" y1="165" x2="254.6" y2="165"/>
<line fill="none" stroke="#000000" stroke-width="5" stroke-linecap="round" x1="249.9" y1="151.9" x2="254.6" y2="151.9"/>
<line fill="none" stroke="#000000" stroke-width="5" stroke-linecap="round" x1="249.9" y1="139.3" x2="254.6" y2="139.3"/>
<line fill="none" stroke="#000000" stroke-width="5" stroke-linecap="round" x1="249.9" y1="127.8" x2="254.6" y2="127.8"/>
</svg>
