<?xml version="1.0" encoding="utf-8"?>
<!-- Generator: Adobe Illustrator 21.0.0, SVG Export Plug-In . SVG Version: 6.00 Build 0)  -->
<svg version="1.1" id="Layer_1" xmlns="http://www.w3.org/2000/svg" xmlns:xlink="http://www.w3.org/1999/xlink" x="0px" y="0px"
	 viewBox="0 0 512 512" enable-background="new 0 0 512 512" xml:space="preserve">
<g>
	<g>
		<path fill="none" stroke="#000000" stroke-width="5" stroke-linecap="round" stroke-miterlimit="10" d="M109,370.8H63
			c-4.2,0-7.5-3.4-7.5-7.5V228.8c0-4.2,3.4-7.5,7.5-7.5h46c4.2,0,7.5,3.4,7.5,7.5v134.6C116.5,367.5,113.1,370.8,109,370.8z"/>
		<path fill="none" stroke="#000000" stroke-width="5" stroke-linecap="round" stroke-miterlimit="10" d="M118,240.4h50.2
			c7.7,0,15.3,1.8,22.3,5.1l43.4,21.1c8.2,4,17.3,5.7,26.4,5l50.4-4.1c9.6-0.8,18.5,5.2,21.3,14.5l0.9,3.1c2.8,9.3-1.2,19.2-9.6,24
			l0,0"/>
		<path fill="none" stroke="#000000" stroke-width="5" stroke-linecap="round" stroke-miterlimit="10" d="M217.7,333.1l88.5-19.2
			c18.7-4.1,36.2-12.5,51-24.7l57.7-47.3c10.8-8.9,26.7-7.5,35.9,3l0,0c10,11.5,8,29-4.3,37.9L297.4,383.9
			c-24.6,17.9-57,21-84.6,8.2l-95.5-42.4"/>
		
			<circle fill="none" stroke="#000000" stroke-width="5" stroke-linecap="round" stroke-miterlimit="10" cx="260.2" cy="126.3" r="81.7"/>
		<path fill="none" stroke="#000000" stroke-width="5" stroke-linecap="round" stroke-miterlimit="10" d="M233.3,84.1
			c0,0,70.9-2.7,70.9,70.9"/>
		<path fill="none" stroke="#000000" stroke-width="5" stroke-linecap="round" stroke-miterlimit="10" d="M234.2,116.4
			c0,0,37.7-1.4,37.7,37.7"/>
		<path fill="none" stroke="#000000" stroke-width="5" stroke-linecap="round" stroke-miterlimit="10" d="M226.9,145.2
			c0,0,16.2-0.6,16.2,16.2"/>
	</g>
	<g>
		<path d="M168.5,468.1v-24.9h17.4v5.1H175v4.6h10.2v5.1H175v10.1H168.5z"/>
		<path d="M210.6,468.1h-7l-3.2-8.3c-0.4-0.9-1.2-1.4-2.6-1.4h-2.4v9.7H189v-24.9h11.6c3,0,5.3,0.6,6.8,1.9c1.5,1.3,2.3,3.1,2.3,5.5
			c0,1.7-0.4,3.1-1.3,4.4c-0.9,1.2-2.2,2.1-3.8,2.6c0.7,0.1,1.3,0.5,1.9,1c0.6,0.5,1,1.2,1.3,2.1L210.6,468.1z M202.6,452.8
			c0.6-0.4,0.9-1.1,0.9-2c0-1-0.3-1.6-0.9-2.1c-0.6-0.4-1.6-0.6-3.1-0.6h-4.1v5.4h4.1C200.9,453.5,201.9,453.2,202.6,452.8z"/>
		<path d="M214,468.1v-24.9h17.8v5h-11.4v4.7H231v5h-10.6v5.1h11.4v5H214z"/>
		<path d="M235.1,468.1v-24.9h17.8v5h-11.4v4.7h10.6v5h-10.6v5.1h11.4v5H235.1z"/>
		<path d="M297.1,443.1h6.2l-8.9,24.9h-5.2l-5.2-14.8l-5.3,14.8h-5.2l-8.9-24.9h6.7l5.1,15.7l5.6-15.7h4.5l5.4,16L297.1,443.1z"/>
		<path d="M306,468.1v-24.9h6.6v24.9H306z"/>
		<path d="M317.1,468.1v-24.9h17.4v5.1h-10.9v4.6h10.2v5.1h-10.2v10.1H317.1z"/>
		<path d="M337.5,468.1v-24.9h6.6v24.9H337.5z"/>
	</g>
</g>
</svg>
