<?xml version="1.0" encoding="utf-8"?>
<!-- Generator: Adobe Illustrator 21.0.0, SVG Export Plug-In . SVG Version: 6.00 Build 0)  -->
<svg version="1.1" id="Layer_1" xmlns="http://www.w3.org/2000/svg" xmlns:xlink="http://www.w3.org/1999/xlink" x="0px" y="0px"
	 viewBox="0 0 512 512" enable-background="new 0 0 512 512" xml:space="preserve">
<g>
	<g>
		<path fill="none" stroke="#000000" stroke-width="5" stroke-linecap="round" d="M246.5,307.1c-6.1-2.5-68.4-29.9,5.9-91.3
			c4.5-3.7,6.3-9.7,4.5-15.2c0-0.1-0.1-0.2-0.1-0.3c-1-2.8,2.3-5.1,4.7-3.4c7.8,5.6,16.8,16.3,12.3,35c0,0-5.8,28,13.3,14
			c1-0.7,2.4-0.4,3,0.6c4.4,7.8,17.5,37.3-22.7,59.6c-0.2,0.1-0.4-0.1-0.3-0.3c3.3-3.9,15.7-20.7,3.3-36.8c-0.4-0.5-1.1-0.3-1.2,0.3
			c-0.6,4.6-3.4,17.6-15.3,11.3c-13.4-7,4-29.1,5.7-31.5c0.1-0.1,0-0.3-0.2-0.2c-6.2,3.3-31.8,19.9-12.8,57.8
			C246.8,307,246.7,307.2,246.5,307.1z"/>
		<polyline fill="none" stroke="#000000" stroke-width="5" stroke-linecap="round" points="266.7,136.3 266.7,136.3 266.7,112 
			257.1,112 256,112 245.2,112 245.2,136.3 		"/>
		<line fill="none" stroke="#000000" stroke-width="5" stroke-linecap="round" x1="256" y1="112" x2="256" y2="76.3"/>
		<path fill="none" stroke="#000000" stroke-width="5" stroke-linecap="round" d="M280,91.4V83c0-3.9-3.2-7.1-7.1-7.1
			c-9.1,0-24.8,0-33.9,0c-3.9,0-7.1,3.2-7.1,7.1v8.4"/>
		<g>
			<path fill="none" stroke="#000000" stroke-width="5" stroke-linecap="round" d="M245.2,136.3h-54.6c-0.5,0-1.1,0-1.6,0
				c-16.7,0.8-30,14.7-30,31.6v164.8c0,17.5,14.1,31.6,31.6,31.6h130.8c17.5,0,31.6-14.2,31.6-31.6V167.9c0-16.9-13.3-30.7-30-31.6
				c-0.5,0-1.1,0-1.6,0h-54.6"/>
			<path fill="none" stroke="#000000" stroke-width="5" stroke-linecap="round" d="M312.4,400.6H199.5c-8.8,0-15.9-7.1-15.9-15.9
				v-20.4h144.6v20.4C328.3,393.4,321.2,400.6,312.4,400.6z"/>
			<line fill="none" stroke="#000000" stroke-width="5" stroke-linecap="round" x1="159.1" y1="258" x2="192.7" y2="258"/>
			<line fill="none" stroke="#000000" stroke-width="5" stroke-linecap="round" x1="159.1" y1="231.6" x2="205.2" y2="231.6"/>
			<line fill="none" stroke="#000000" stroke-width="5" stroke-linecap="round" x1="352.8" y1="258" x2="319.2" y2="258"/>
			<line fill="none" stroke="#000000" stroke-width="5" stroke-linecap="round" x1="352.8" y1="231.6" x2="306.7" y2="231.6"/>
		</g>
		<path fill="none" stroke="#000000" stroke-width="5" stroke-linecap="round" d="M266.7,136.3h55.7h5.4V92.7
			c0-24.5-19.9-44.4-44.4-44.4h-54.8c-24.5,0-44.4,19.9-44.4,44.4v43.6h5.3"/>
	</g>
	<g>
		<path d="M171.1,445h11.9c2.8,0,5.1,0.7,6.6,2c1.6,1.4,2.3,3.2,2.3,5.5c0,2.3-0.8,4.2-2.4,5.5s-3.8,2.1-6.6,2.1h-5.3v9.7h-6.6V445z
			 M182.1,455.3c2.5,0,3.7-0.9,3.7-2.6c0-0.9-0.3-1.6-0.9-2c-0.6-0.5-1.5-0.7-2.8-0.7h-4.4v5.3H182.1z"/>
		<path d="M216.7,469.9h-7l-3.2-8.3c-0.4-0.9-1.2-1.4-2.6-1.4h-2.4v9.7H195V445h11.6c3,0,5.3,0.6,6.8,1.9c1.5,1.3,2.3,3.1,2.3,5.5
			c0,1.7-0.4,3.1-1.3,4.4c-0.9,1.2-2.2,2.1-3.8,2.6c0.7,0.1,1.3,0.5,1.9,1c0.6,0.5,1,1.2,1.3,2.1L216.7,469.9z M208.6,454.7
			c0.6-0.4,0.9-1.1,0.9-2c0-1-0.3-1.6-0.9-2.1c-0.6-0.4-1.6-0.6-3.1-0.6h-4.1v5.4h4.1C207,455.3,208,455.1,208.6,454.7z"/>
		<path d="M225.1,468.7c-1.9-1-3.3-2.5-4.4-4.5c-1-1.9-1.5-4.2-1.5-6.8s0.5-4.8,1.5-6.8c1-1.9,2.5-3.4,4.4-4.4
			c1.9-1,4.1-1.6,6.6-1.6c2.5,0,4.8,0.5,6.6,1.6c1.9,1,3.3,2.5,4.3,4.4s1.5,4.2,1.5,6.8s-0.5,4.9-1.5,6.8c-1,1.9-2.4,3.4-4.3,4.5
			s-4.1,1.6-6.6,1.6C229.2,470.2,227,469.7,225.1,468.7z M236.1,463.2c1.1-1.3,1.6-3.3,1.6-5.8c0-2.5-0.5-4.4-1.6-5.8
			c-1.1-1.3-2.5-2-4.4-2c-1.9,0-3.3,0.7-4.4,2c-1.1,1.3-1.6,3.2-1.6,5.8c0,2.6,0.5,4.5,1.6,5.8c1,1.3,2.5,2,4.4,2
			C233.6,465.2,235.1,464.6,236.1,463.2z"/>
		<path d="M248,445h11.9c2.8,0,5.1,0.7,6.6,2c1.6,1.4,2.3,3.2,2.3,5.5c0,2.3-0.8,4.2-2.4,5.5s-3.8,2.1-6.6,2.1h-5.3v9.7H248V445z
			 M259,455.3c2.5,0,3.7-0.9,3.7-2.6c0-0.9-0.3-1.6-0.9-2c-0.6-0.5-1.5-0.7-2.8-0.7h-4.4v5.3H259z"/>
		<path d="M288.4,469.9l-2.2-5.1h-11.1l-2.2,5.1h-6.6L278,445h5.2l11.7,24.9H288.4z M277.2,459.8h6.8l-3.4-7.9L277.2,459.8z"/>
		<path d="M312.4,445h6.2v24.9h-4.9l-11.3-14.1v14.1h-6.1V445h4.8l11.3,14.1V445z"/>
		<path d="M323.1,469.9V445h17.8v5h-11.4v4.7h10.6v5h-10.6v5.1h11.4v5H323.1z"/>
	</g>
</g>
</svg>
