<?xml version="1.0" encoding="utf-8"?>
<!-- Generator: Adobe Illustrator 21.0.0, SVG Export Plug-In . SVG Version: 6.00 Build 0)  -->
<svg version="1.1" id="Layer_1" xmlns="http://www.w3.org/2000/svg" xmlns:xlink="http://www.w3.org/1999/xlink" x="0px" y="0px"
	 viewBox="0 0 512 512" enable-background="new 0 0 512 512" xml:space="preserve">
<g>
	<g>
		<path fill="none" stroke="#000000" stroke-width="5" stroke-linecap="round" d="M212.1,317.3c0.5,0.8-0.4,1.6-1.2,1.1
			c-17-11-95.5-69-11.4-152.5c0,0,69.7-71,14.3-119.9c-0.3-0.2,0-0.6,0.3-0.5c16.9,8.5,133,72.2,74.6,185.8
			c-0.6,1.2,0.7,2.4,1.8,1.6c10.5-7,37.9-29.3,31-69.5c-0.1-0.5,0.6-0.9,0.9-0.4c9.6,11.2,68.3,86.5-20.2,154.9
			c-0.3,0.2-0.6-0.1-0.4-0.4c3.4-5.2,12.2-22.2,1.4-46.3c-0.3-0.6-1.2-0.5-1.3,0.2c-0.9,6.9-6.5,26.9-38.6,37.6
			c-0.2,0.1-0.4-0.2-0.2-0.4c4.9-4.6,28.8-30.2-6.8-68.1c0,0-31.7-37,2-70c0.4-0.4,0-1-0.5-0.8C241.4,176.8,152.1,220.5,212.1,317.3
			z"/>
		<g>
			<g>
				<line fill="none" stroke="#000000" stroke-width="5" stroke-linecap="round" x1="225.1" y1="402.6" x2="287" y2="402.6"/>
				<path fill="none" stroke="#000000" stroke-width="5" stroke-linecap="round" d="M224.8,402.6c0.4-16.9,14.3-30.4,31.2-30.4
					c17,0,30.8,13.5,31.2,30.4"/>
				<path fill="none" stroke="#000000" stroke-width="5" stroke-linecap="round" d="M283.9,388.6L280,354
					c-1.4-12-11.5-21.1-23.6-21.1c-0.2,0-0.4,0-0.6,0c-12.1,0-22.2,9.1-23.6,21.1l-3.9,34.1"/>
			</g>
			<path fill="none" stroke="#000000" stroke-width="5" stroke-linecap="round" d="M191.8,393.9L137.9,383c-1.1-0.2-1.7-1.2-1.5-2.3
				c1.1-5.6,5.6-21.5,21.1-25c0.4-0.1,0.8-0.2,1.2-0.2c7.5-1.3,15.1,0.8,21.3,5.3c13.9,10,14.6,24.8,14.2,31.3
				C194.1,393.3,193,394.1,191.8,393.9z"/>
			<path fill="none" stroke="#000000" stroke-width="5" stroke-linecap="round" d="M159.7,355.2l30.6-23c8.5-6.4,20.3-5.5,27.8,2
				l0,0c7.9,7.9,8.4,20.5,1.1,28.9l-25.6,30.2"/>
			<path fill="none" stroke="#000000" stroke-width="5" stroke-linecap="round" d="M320,393.9l53.9-10.9c1.1-0.2,1.7-1.2,1.5-2.3
				c-1.1-5.6-5.6-21.5-21.1-25c-0.4-0.1-0.8-0.2-1.2-0.2c-7.5-1.3-15.1,0.8-21.3,5.3c-13.9,10-14.6,24.8-14.2,31.3
				C317.7,393.3,318.8,394.1,320,393.9z"/>
			<path fill="none" stroke="#000000" stroke-width="5" stroke-linecap="round" d="M352.1,355.2l-30.6-23c-8.5-6.4-20.3-5.5-27.8,2
				l0,0c-7.9,7.9-8.4,20.5-1.1,28.9l25.6,30.2"/>
		</g>
	</g>
	<g>
		<path d="M157.6,469.9V445H175v5.1h-10.9v4.6h10.2v5.1h-10.2v10.1H157.6z"/>
		<path d="M178,469.9V445h6.6v24.9H178z"/>
		<path d="M210.8,469.9h-7l-3.2-8.3c-0.4-0.9-1.2-1.4-2.6-1.4h-2.4v9.7h-6.5V445h11.6c3,0,5.3,0.6,6.8,1.9c1.5,1.3,2.3,3.1,2.3,5.5
			c0,1.7-0.4,3.1-1.3,4.4c-0.9,1.2-2.2,2.1-3.8,2.6c0.7,0.1,1.3,0.5,1.9,1c0.6,0.5,1,1.2,1.3,2.1L210.8,469.9z M202.7,454.7
			c0.6-0.4,0.9-1.1,0.9-2c0-1-0.3-1.6-0.9-2.1c-0.6-0.4-1.6-0.6-3.1-0.6h-4.1v5.4h4.1C201,455.3,202,455.1,202.7,454.7z"/>
		<path d="M214.1,469.9V445h17.8v5h-11.4v4.7h10.6v5h-10.6v5.1h11.4v5H214.1z"/>
		<path d="M266.3,445h6.2l-8.9,24.9h-5.2l-5.2-14.8l-5.3,14.8h-5.2l-8.9-24.9h6.7l5.1,15.7l5.6-15.7h4.5l5.4,16L266.3,445z"/>
		<path d="M279.6,468.7c-1.9-1-3.3-2.5-4.4-4.5c-1-1.9-1.5-4.2-1.5-6.8s0.5-4.8,1.5-6.8c1-1.9,2.5-3.4,4.4-4.4
			c1.9-1,4.1-1.6,6.6-1.6c2.5,0,4.8,0.5,6.6,1.6c1.9,1,3.3,2.5,4.3,4.4s1.5,4.2,1.5,6.8s-0.5,4.9-1.5,6.8c-1,1.9-2.4,3.4-4.3,4.5
			s-4.1,1.6-6.6,1.6C283.7,470.2,281.5,469.7,279.6,468.7z M290.7,463.2c1.1-1.3,1.6-3.3,1.6-5.8c0-2.5-0.5-4.4-1.6-5.8
			c-1.1-1.3-2.5-2-4.4-2c-1.9,0-3.3,0.7-4.4,2c-1.1,1.3-1.6,3.2-1.6,5.8c0,2.6,0.5,4.5,1.6,5.8c1,1.3,2.5,2,4.4,2
			C288.2,465.2,289.6,464.6,290.7,463.2z"/>
		<path d="M307.8,468.7c-1.9-1-3.3-2.5-4.4-4.5c-1-1.9-1.5-4.2-1.5-6.8s0.5-4.8,1.5-6.8c1-1.9,2.5-3.4,4.4-4.4
			c1.9-1,4.1-1.6,6.6-1.6c2.5,0,4.8,0.5,6.6,1.6c1.9,1,3.3,2.5,4.3,4.4s1.5,4.2,1.5,6.8s-0.5,4.9-1.5,6.8c-1,1.9-2.4,3.4-4.3,4.5
			s-4.1,1.6-6.6,1.6C311.9,470.2,309.7,469.7,307.8,468.7z M318.9,463.2c1.1-1.3,1.6-3.3,1.6-5.8c0-2.5-0.5-4.4-1.6-5.8
			c-1.1-1.3-2.5-2-4.4-2c-1.9,0-3.3,0.7-4.4,2c-1.1,1.3-1.6,3.2-1.6,5.8c0,2.6,0.5,4.5,1.6,5.8c1,1.3,2.5,2,4.4,2
			C316.3,465.2,317.8,464.6,318.9,463.2z"/>
		<path d="M330.8,445H341c2.8,0,5.1,0.5,7.1,1.5c2,1,3.5,2.4,4.6,4.3c1.1,1.9,1.6,4.1,1.6,6.6c0,2.6-0.5,4.8-1.6,6.7
			c-1.1,1.9-2.6,3.3-4.6,4.3c-2,1-4.4,1.5-7.2,1.5h-10.2V445z M340.5,464.7c2.4,0,4.2-0.6,5.4-1.8c1.2-1.2,1.8-3,1.8-5.4
			c0-4.8-2.4-7.2-7.2-7.2h-3.1v14.4H340.5z"/>
	</g>
</g>
</svg>
