<?xml version="1.0" encoding="utf-8"?>
<!-- Generator: Adobe Illustrator 21.0.0, SVG Export Plug-In . SVG Version: 6.00 Build 0)  -->
<svg version="1.1" id="Layer_1" xmlns="http://www.w3.org/2000/svg" xmlns:xlink="http://www.w3.org/1999/xlink" x="0px" y="0px"
	 viewBox="0 0 512 512" enable-background="new 0 0 512 512" xml:space="preserve">
<g>
	<g>
		<path fill="none" stroke="#000000" stroke-width="5" stroke-linecap="round" d="M154.3,273.2l25.8,20.3c4,3.1,9.8,2.4,12.9-1.7
			l14.5-19.1"/>
		<path fill="none" stroke="#000000" stroke-width="5" stroke-linecap="round" d="M75.8,283.2c-0.4,11.2,4.3,22.4,13.7,29.7
			l98.3,77.2c7.7,6,18.8,4.6,24.8-3.2L296.3,277"/>
		<path fill="none" stroke="#000000" stroke-width="5" stroke-linecap="round" d="M318,248.4C318,248.4,318,248.4,318,248.4
			l14.2-18.6l3.8-5.1"/>
		<path fill="none" stroke="#000000" stroke-width="5" stroke-linecap="round" d="M288.5,166.2L363,68.4
			c11.9-15.6,34.1-18.6,49.5-6.5l1.8,1.4c15.5,12.1,18.3,34.6,6.4,50.3L386,159.1"/>
		<g>
			<g>
				<path fill="none" stroke="#000000" stroke-width="5" stroke-linecap="round" d="M285.1,250.9c-4.2,22.5-24.6,22.4-28.6,22.2
					c-4,0.2-24.4,0.4-28.7-22.2c-0.9-4.8-0.1-10.9,1.6-17.7c5.3-20.4,24.5-54,26.8-58c0.1-0.2,0.4-0.2,0.5,0
					c2.3,4,21.5,37.6,26.8,58C285.2,240,286,246.1,285.1,250.9z"/>
				<circle fill="none" stroke="#000000" stroke-width="5" stroke-linecap="round" cx="256.5" cy="224.1" r="66.2"/>
			</g>
			<g>
				<path fill="none" stroke="#000000" stroke-width="5" stroke-linecap="round" d="M128.8,176.7L84,232.4c-0.1,0.1,0,0.3,0.1,0.3
					H104c0.1,0,0.2,0.1,0.2,0.2l-13.2,38.5c-0.1,0.2,0.2,0.3,0.3,0.2l44.7-55.9c0.1-0.1,0-0.3-0.1-0.3h-18.7c-0.1,0-0.2-0.1-0.2-0.2
					l12.1-38.4C129.1,176.7,128.9,176.5,128.8,176.7z"/>
				<circle fill="none" stroke="#000000" stroke-width="5" stroke-linecap="round" cx="110" cy="224.1" r="66.2"/>
			</g>
			<g>
				<path fill="none" stroke="#000000" stroke-width="5" stroke-linecap="round" d="M402.4,158c-4.1,0-8.2,0.4-12.1,1.1
					c-30.7,5.7-54,32.6-54,65c0,1.9,0.1,3.8,0.2,5.6v0c0.6,6.8,2.2,13.4,4.7,19.4c3.8,9.2,9.5,17.3,16.7,23.9h0
					c11.7,10.7,27.4,17.2,44.5,17.2c19.4,0,36.9-8.4,49-21.7c4.6-5.1,8.5-10.9,11.3-17.2c3.8-8.3,5.9-17.6,5.9-27.3
					C468.6,187.6,439,158,402.4,158z M352.5,208.7v10.4c0,3.5,2.8,6.3,6.3,6.3h21c-1-4-1.6-8.9-1.6-14.1c0-5,0.6-9.7,1.5-13.6h-18.8
					"/>
				<path fill="none" stroke="#000000" stroke-width="5" stroke-linecap="round" d="M379.8,225.4h-21c-3.5,0-6.3-2.8-6.3-6.3v-10.4
					V204c0-3.5,2.8-6.3,6.3-6.3h2.1h18.8"/>
				<ellipse fill="none" stroke="#000000" stroke-width="5" stroke-linecap="round" cx="401.7" cy="211.3" rx="9.4" ry="25"/>
				<path fill="none" stroke="#000000" stroke-width="5" stroke-linecap="round" d="M387.6,186.3c-3.3,0-6.2,4.5-7.9,11.4
					c-1,3.9-1.5,8.6-1.5,13.6c0,5.2,0.6,10.1,1.6,14.1c1.7,6.6,4.6,10.9,7.8,10.9"/>
				<line fill="none" x1="401.7" y1="253.5" x2="385.8" y2="253.5"/>
				<line fill="none" stroke="#000000" stroke-width="5" stroke-linecap="round" x1="401.7" y1="236.4" x2="387.4" y2="236.4"/>
				<line fill="none" stroke="#000000" stroke-width="5" stroke-linecap="round" x1="401.7" y1="186.3" x2="387.6" y2="186.3"/>
				<path fill="none" stroke="#000000" stroke-width="4" stroke-linecap="round" d="M432.5,249.7v-41c0-2-1.6-3.6-3.6-3.6h-25.6"/>
				<path fill="none" stroke="#000000" stroke-width="4" stroke-linecap="round" d="M424,250.2v-29.4c0-2-1.6-3.6-3.6-3.6h-17.2"/>
				<path fill="none" stroke="#000000" stroke-width="5" stroke-linecap="round" d="M341.2,249.2c3.3,0.4,4.9,1.6,8.5,3.2
					c5.6,2.5,16.2,3,26.2-1c10-4,22.5-2.9,29.6,1.2c7.1,4.1,25.8-0.4,28.4-1.4c2.6-1,14.5-1.9,16.4-1.6c0.9,0.2,6.7,1,12.5,1.8"/>
				<path fill="none" stroke="#000000" stroke-width="5" stroke-linecap="round" d="M357.9,273.1c5.3,0.4,11.7-0.4,17.9-2.8
					c10-4,22.5-2.9,29.6,1.2c7.1,4.1,25.8-0.4,28.4-1.4c2.6-1,14.5-1.9,16.4-1.6c0.2,0,0.6,0.1,1.1,0.2"/>
			</g>
		</g>
	</g>
	<g>
		<path d="M129.8,469.9V445h17.4v5.1h-10.9v4.6h10.2v5.1h-10.2v10.1H129.8z"/>
		<path d="M153,467.5c-1.9-1.8-2.8-4.5-2.8-8.1V445h6.4v14.7c0,1.8,0.4,3.2,1.2,4.1c0.8,1,2,1.4,3.4,1.4c1.5,0,2.6-0.5,3.4-1.5
			c0.8-1,1.2-2.3,1.2-4.1V445h6.5v14.4c0,3.5-1,6.2-2.9,8c-1.9,1.9-4.6,2.8-8.2,2.8C157.6,470.2,154.8,469.3,153,467.5z"/>
		<path d="M176.6,469.9V445h6.6v19.6h10.5v5.3H176.6z"/>
		<path d="M196.9,469.9V445h6.6v19.6H214v5.3H196.9z"/>
		<path d="M243.8,445h6.4v24.9h-6.4v-10.1h-10.1v10.1h-6.4V445h6.4v9.7h10.1V445z"/>
		<path d="M259.9,468.7c-1.9-1-3.3-2.5-4.4-4.5c-1-1.9-1.5-4.2-1.5-6.8s0.5-4.8,1.5-6.8c1-1.9,2.5-3.4,4.4-4.4
			c1.9-1,4.1-1.6,6.6-1.6c2.5,0,4.8,0.5,6.6,1.6c1.9,1,3.3,2.5,4.3,4.4s1.5,4.2,1.5,6.8s-0.5,4.9-1.5,6.8c-1,1.9-2.4,3.4-4.3,4.5
			s-4.1,1.6-6.6,1.6C264,470.2,261.8,469.7,259.9,468.7z M271,463.2c1.1-1.3,1.6-3.3,1.6-5.8c0-2.5-0.5-4.4-1.6-5.8
			c-1.1-1.3-2.5-2-4.4-2c-1.9,0-3.3,0.7-4.4,2c-1.1,1.3-1.6,3.2-1.6,5.8c0,2.6,0.5,4.5,1.6,5.8c1,1.3,2.5,2,4.4,2
			C268.4,465.2,269.9,464.6,271,463.2z"/>
		<path d="M288.1,468.7c-1.9-1-3.3-2.5-4.4-4.5c-1-1.9-1.5-4.2-1.5-6.8s0.5-4.8,1.5-6.8c1-1.9,2.5-3.4,4.4-4.4
			c1.9-1,4.1-1.6,6.6-1.6c2.5,0,4.8,0.5,6.6,1.6c1.9,1,3.3,2.5,4.3,4.4s1.5,4.2,1.5,6.8s-0.5,4.9-1.5,6.8c-1,1.9-2.4,3.4-4.3,4.5
			s-4.1,1.6-6.6,1.6C292.2,470.2,290,469.7,288.1,468.7z M299.1,463.2c1.1-1.3,1.6-3.3,1.6-5.8c0-2.5-0.5-4.4-1.6-5.8
			c-1.1-1.3-2.5-2-4.4-2c-1.9,0-3.3,0.7-4.4,2c-1.1,1.3-1.6,3.2-1.6,5.8c0,2.6,0.5,4.5,1.6,5.8c1,1.3,2.5,2,4.4,2
			C296.6,465.2,298.1,464.6,299.1,463.2z"/>
		<path d="M335.4,469.9h-7.8l-10-11.3v11.3h-6.6V445h6.6v10.7l9.7-10.7h7.7l-11,11.8L335.4,469.9z"/>
		<path d="M338.1,467.5c-1.9-1.8-2.8-4.5-2.8-8.1V445h6.4v14.7c0,1.8,0.4,3.2,1.2,4.1c0.8,1,2,1.4,3.4,1.4c1.5,0,2.6-0.5,3.4-1.5
			c0.8-1,1.2-2.3,1.2-4.1V445h6.5v14.4c0,3.5-1,6.2-2.9,8c-1.9,1.9-4.6,2.8-8.2,2.8C342.7,470.2,340,469.3,338.1,467.5z"/>
		<path d="M361.7,445h11.9c2.8,0,5.1,0.7,6.6,2c1.6,1.4,2.3,3.2,2.3,5.5c0,2.3-0.8,4.2-2.4,5.5s-3.8,2.1-6.6,2.1h-5.3v9.7h-6.6V445z
			 M372.7,455.3c2.5,0,3.7-0.9,3.7-2.6c0-0.9-0.3-1.6-0.9-2c-0.6-0.5-1.5-0.7-2.8-0.7h-4.4v5.3H372.7z"/>
	</g>
</g>
</svg>
