<?xml version="1.0" encoding="utf-8"?>
<!-- Generator: Adobe Illustrator 21.0.0, SVG Export Plug-In . SVG Version: 6.00 Build 0)  -->
<svg version="1.1" id="Layer_1" xmlns="http://www.w3.org/2000/svg" xmlns:xlink="http://www.w3.org/1999/xlink" x="0px" y="0px"
	 viewBox="0 0 512 512" enable-background="new 0 0 512 512" xml:space="preserve">
<g>
	<g>
		<g>
			<path fill="none" stroke="#000000" stroke-width="5" stroke-linecap="round" d="M117.6,174.4V84.7c0-11.9,9.7-21.6,21.6-21.6
				h241.8c11.9,0,21.6,9.7,21.6,21.6v89.7"/>
			<path fill="none" stroke="#000000" stroke-width="5" stroke-linecap="round" d="M402.7,275.3V365c0,11.9-9.7,21.6-21.6,21.6
				H139.2c-11.9,0-21.6-9.7-21.6-21.6v-89.7"/>
		</g>
		<line fill="none" stroke="#000000" stroke-width="5" stroke-linecap="round" x1="43.5" y1="224.8" x2="140.8" y2="224.8"/>
		<path fill="none" stroke="#000000" stroke-width="5" stroke-linecap="round" d="M102.3,254.9l40.1-28.1c1.4-1,1.4-3.1,0-4
			l-40.1-28.1"/>
		<line fill="none" stroke="#000000" stroke-width="5" stroke-linecap="round" x1="208" y1="224.8" x2="305.2" y2="224.8"/>
		<path fill="none" stroke="#000000" stroke-width="5" stroke-linecap="round" d="M266.8,254.9l40.1-28.1c1.4-1,1.4-3.1,0-4
			l-40.1-28.1"/>
		<line fill="none" stroke="#000000" stroke-width="5" stroke-linecap="round" x1="368.4" y1="224.8" x2="465.6" y2="224.8"/>
		<path fill="none" stroke="#000000" stroke-width="5" stroke-linecap="round" d="M427.3,254.9l40.1-28.1c1.4-1,1.4-3.1,0-4
			l-40.1-28.1"/>
	</g>
	<g>
		<path d="M108.9,445h11.9c2.8,0,5.1,0.7,6.6,2c1.6,1.4,2.3,3.2,2.3,5.5c0,2.3-0.8,4.2-2.4,5.5c-1.6,1.4-3.8,2.1-6.6,2.1h-5.3v9.7
			h-6.6V445z M119.9,455.3c2.5,0,3.7-0.9,3.7-2.6c0-0.9-0.3-1.6-0.9-2c-0.6-0.5-1.5-0.7-2.8-0.7h-4.4v5.3H119.9z"/>
		<path d="M135.6,467.5c-1.9-1.8-2.8-4.5-2.8-8.1V445h6.4v14.7c0,1.8,0.4,3.2,1.2,4.1c0.8,1,2,1.4,3.4,1.4c1.5,0,2.6-0.5,3.4-1.5
			c0.8-1,1.2-2.3,1.2-4.1V445h6.5v14.4c0,3.5-1,6.2-2.9,8c-1.9,1.9-4.6,2.8-8.2,2.8C140.2,470.3,137.5,469.3,135.6,467.5z"/>
		<path d="M159.2,469.9V445h6.6v19.6h10.5v5.3H159.2z"/>
		<path d="M179.5,469.9V445h6.6v19.6h10.5v5.3H179.5z"/>
		<path d="M215.5,469.9v-19.6h-7.4V445h21.5v5.3h-7.4v19.6H215.5z"/>
		<path d="M248.8,445h6.4v24.9h-6.4v-10.1h-10.1v10.1h-6.4V445h6.4v9.7h10.1V445z"/>
		<path d="M281.3,469.9h-7l-3.2-8.3c-0.4-0.9-1.2-1.4-2.6-1.4h-2.4v9.7h-6.5V445h11.6c3,0,5.3,0.6,6.8,1.9c1.5,1.3,2.3,3.1,2.3,5.5
			c0,1.7-0.4,3.1-1.3,4.4c-0.9,1.2-2.2,2.1-3.8,2.6c0.7,0.1,1.3,0.5,1.9,1c0.6,0.5,1,1.2,1.3,2.1L281.3,469.9z M273.3,454.7
			c0.6-0.4,0.9-1.1,0.9-2c0-1-0.3-1.6-0.9-2.1c-0.6-0.4-1.6-0.6-3.1-0.6h-4.1v5.4h4.1C271.6,455.3,272.6,455.1,273.3,454.7z"/>
		<path d="M289.7,468.7c-1.9-1-3.3-2.5-4.4-4.5c-1-1.9-1.5-4.2-1.5-6.8s0.5-4.8,1.5-6.8c1-1.9,2.5-3.4,4.4-4.4
			c1.9-1,4.1-1.6,6.6-1.6c2.5,0,4.8,0.5,6.6,1.6c1.9,1,3.3,2.5,4.3,4.4s1.5,4.2,1.5,6.8s-0.5,4.9-1.5,6.8c-1,1.9-2.4,3.4-4.3,4.5
			s-4.1,1.6-6.6,1.6C293.8,470.3,291.6,469.7,289.7,468.7z M300.8,463.3c1.1-1.3,1.6-3.3,1.6-5.8c0-2.5-0.5-4.4-1.6-5.8
			c-1.1-1.3-2.5-2-4.4-2c-1.9,0-3.3,0.7-4.4,2c-1.1,1.3-1.6,3.2-1.6,5.8c0,2.6,0.5,4.5,1.6,5.8c1,1.3,2.5,2,4.4,2
			C298.2,465.2,299.7,464.6,300.8,463.3z"/>
		<path d="M315.4,467.5c-1.9-1.8-2.8-4.5-2.8-8.1V445h6.4v14.7c0,1.8,0.4,3.2,1.2,4.1c0.8,1,2,1.4,3.4,1.4c1.5,0,2.6-0.5,3.4-1.5
			c0.8-1,1.2-2.3,1.2-4.1V445h6.5v14.4c0,3.5-1,6.2-2.9,8c-1.9,1.9-4.6,2.8-8.2,2.8C320,470.3,317.2,469.3,315.4,467.5z"/>
		<path d="M361.1,455.9v12.5c-1.3,0.6-2.8,1.1-4.5,1.4c-1.6,0.3-3.3,0.5-5.1,0.5c-2.7,0-5.1-0.5-7.1-1.5c-2-1-3.5-2.5-4.6-4.4
			s-1.6-4.2-1.6-6.8c0-2.6,0.5-4.8,1.6-6.7s2.6-3.4,4.6-4.4c2-1,4.2-1.6,6.9-1.6c1.8,0,3.5,0.2,5.1,0.7c1.6,0.5,2.9,1.1,3.9,1.9
			l-2.1,4.7c-1.1-0.7-2.2-1.3-3.3-1.6c-1.1-0.3-2.2-0.5-3.4-0.5c-2.2,0-3.9,0.6-5,1.9c-1.1,1.2-1.6,3.2-1.6,5.7
			c0,2.7,0.6,4.6,1.7,5.9c1.1,1.3,2.9,1.9,5.2,1.9c1.1,0,2.2-0.1,3.3-0.3v-4.6h-4.3v-4.4H361.1z"/>
		<path d="M381.8,445h6.4v24.9h-6.4v-10.1h-10.1v10.1h-6.4V445h6.4v9.7h10.1V445z"/>
		<path d="M396.2,469.5c-1.8-0.5-3.3-1.2-4.4-2l2.1-4.7c1.2,0.8,2.5,1.4,3.9,1.8c1.4,0.4,2.7,0.6,4.1,0.6c1.4,0,2.5-0.2,3.2-0.6
			s1.1-0.9,1.1-1.6c0-0.6-0.3-1.1-1-1.6s-1.9-0.8-3.8-1.2c-2.4-0.5-4.2-1-5.5-1.7c-1.3-0.7-2.2-1.5-2.7-2.4
			c-0.5-0.9-0.8-2.1-0.8-3.4c0-1.5,0.4-2.9,1.3-4.1c0.9-1.2,2.1-2.2,3.6-2.9s3.3-1,5.4-1c1.8,0,3.5,0.3,5.2,0.8c1.7,0.5,3,1.2,4,2
			l-2,4.7c-1.1-0.8-2.3-1.4-3.5-1.8c-1.2-0.4-2.4-0.6-3.6-0.6c-1.2,0-2.1,0.2-2.9,0.7c-0.7,0.5-1.1,1.1-1.1,1.8c0,0.4,0.1,0.8,0.4,1
			c0.3,0.3,0.7,0.6,1.4,0.8c0.7,0.3,1.8,0.6,3.2,0.9c2.3,0.5,4,1.1,5.3,1.8c1.3,0.7,2.2,1.5,2.7,2.4c0.5,0.9,0.8,2,0.8,3.3
			c0,2.4-0.9,4.3-2.8,5.7c-1.9,1.4-4.5,2.1-8,2.1C399.9,470.3,398,470,396.2,469.5z"/>
	</g>
</g>
</svg>
