<?xml version="1.0" encoding="utf-8"?>
<!-- Generator: Adobe Illustrator 21.0.0, SVG Export Plug-In . SVG Version: 6.00 Build 0)  -->
<svg version="1.1" id="Layer_1" xmlns="http://www.w3.org/2000/svg" xmlns:xlink="http://www.w3.org/1999/xlink" x="0px" y="0px"
	 viewBox="0 0 512 512" enable-background="new 0 0 512 512" xml:space="preserve">
<path fill="none" stroke="#000000" stroke-width="5" stroke-linecap="round" d="M325.2,348.6H186.5c-6.4,0-11.6-5.2-11.6-11.6V166.2
	c0-6.4,5.2-11.6,11.6-11.6h138.7c6.4,0,11.6,5.2,11.6,11.6v170.8C336.8,343.4,331.6,348.6,325.2,348.6z"/>
<path fill="none" stroke="#000000" stroke-width="5" stroke-linecap="round" d="M273.5,400.6h-35.3c-4.1,0-7.3-3.3-7.3-7.3v-44.6h50
	v44.6C280.9,397.3,277.6,400.6,273.5,400.6z"/>
<path fill="none" stroke="#000000" stroke-width="5" stroke-linecap="round" d="M277.1,189.7l-50.6,63.1c-0.1,0.1,0,0.3,0.1,0.3
	h22.4c0.1,0,0.2,0.1,0.2,0.2l-14.9,43.6c-0.1,0.2,0.2,0.3,0.3,0.2l50.5-63.2c0.1-0.1,0-0.3-0.1-0.3h-21.1c-0.1,0-0.2-0.1-0.2-0.2
	l13.7-43.5C277.5,189.7,277.2,189.5,277.1,189.7z"/>
<path fill="none" stroke="#000000" stroke-width="5" stroke-linecap="round" d="M270.8,154.6h-30v-25.1c0-0.2,0.2-0.4,0.4-0.4h29.2
	c0.2,0,0.4,0.2,0.4,0.4V154.6z"/>
<line fill="none" stroke="#000000" stroke-width="5" stroke-linecap="round" x1="253.1" y1="99.8" x2="258.6" y2="99.8"/>
<line fill="none" stroke="#000000" stroke-width="5" stroke-linecap="round" x1="251.1" y1="83.7" x2="260.6" y2="83.7"/>
<line fill="none" stroke="#000000" stroke-width="5" stroke-linecap="round" x1="246.1" y1="68.5" x2="265.6" y2="68.5"/>
<path fill="none" stroke="#000000" stroke-width="5" stroke-linecap="round" d="M270.7,129.2l-6.3-9.7c-1-1.6-0.4-3.8,1.4-4.6
	l9.7-4.4c2.2-1,2.5-4.1,0.5-5.5l-3.6-2.6c-1.9-1.4-1.7-4.3,0.4-5.4l5.5-2.9c2.4-1.3,2.2-4.8-0.3-5.8l-4.2-1.7
	c-2.2-0.9-2.7-3.7-0.9-5.3l13.7-12.2c0.4-0.4,0.4-1.1-0.1-1.4l-29.2-20.4c-0.8-0.6-1.8-0.6-2.6,0l-29.3,20.4c-0.5,0.3-0.5,1-0.1,1.4
	l13.7,12.2c1.8,1.6,1.3,4.4-0.9,5.3l-4.2,1.7c-2.5,1-2.7,4.5-0.3,5.8L239,97c2.1,1.1,2.3,4,0.4,5.4l-3.6,2.6c-2,1.4-1.7,4.5,0.5,5.5
	l9.7,4.4c1.8,0.8,2.4,3,1.4,4.6l-6.2,9.6"/>
<g>
	<path fill="#010101" stroke="#FFFFFF" d="M135.6,464.8v5.2H118v-4.8l8.1-8.5c1.5-1.6,2.3-3.1,2.3-4.4c0-1.6-1-2.4-2.9-2.4
		c-1,0-2,0.2-3.1,0.6c-1.1,0.4-2.2,0.9-3.3,1.7l-2.1-4.7c1-0.8,2.3-1.5,3.9-1.9c1.6-0.5,3.2-0.7,4.9-0.7c1.8,0,3.4,0.3,4.7,0.9
		c1.3,0.6,2.4,1.4,3.1,2.5c0.7,1.1,1.1,2.3,1.1,3.7c0,1.4-0.3,2.8-0.9,3.9c-0.6,1.2-1.5,2.5-2.9,4l-5,5.1H135.6z"/>
	<path fill="#010101" stroke="#FFFFFF" d="M140.5,467.1c-1.6-2.2-2.5-5.4-2.5-9.5c0-4.1,0.8-7.2,2.5-9.4s4-3.3,7.1-3.3
		s5.4,1.1,7.1,3.3s2.5,5.3,2.5,9.4c0,4.2-0.8,7.3-2.5,9.5s-4,3.3-7.1,3.3S142.1,469.3,140.5,467.1z M150,463.6
		c0.5-1.2,0.7-3.2,0.7-6c0-2.7-0.2-4.7-0.7-5.9c-0.5-1.2-1.3-1.8-2.4-1.8s-1.9,0.6-2.4,1.8c-0.5,1.2-0.7,3.2-0.7,5.9
		c0,2.8,0.2,4.8,0.7,6c0.5,1.2,1.3,1.8,2.4,1.8S149.5,464.8,150,463.6z"/>
	<path fill="#010101" stroke="#FFFFFF" d="M166.2,463.5v4.1c0,1.5-0.3,2.9-0.8,4.1c-0.5,1.2-1.5,2.5-2.8,3.8l-2.3-1.9
		c1.3-1.3,2.1-2.5,2.3-3.6h-3v-6.5H166.2z"/>
	<path fill="#010101" stroke="#FFFFFF" d="M196.2,459.4c0.8,1,1.2,2.3,1.2,3.8c0,1.4-0.4,2.7-1.2,3.8c-0.8,1.1-1.9,1.9-3.4,2.5
		c-1.5,0.6-3.2,0.9-5.1,0.9c-1.8,0-3.4-0.2-5.1-0.7s-3-1.1-3.9-1.9l2.1-4.7c2.2,1.5,4.4,2.2,6.7,2.2c1.4,0,2.4-0.2,3-0.6
		c0.6-0.4,0.9-1.1,0.9-2.1c0-0.9-0.3-1.6-0.9-2c-0.6-0.4-1.5-0.6-2.9-0.6h-3.9v-5h3.2c1.3,0,2.2-0.2,2.8-0.5c0.6-0.4,0.9-1,0.9-1.8
		c0-0.9-0.3-1.6-0.8-2s-1.3-0.7-2.3-0.7c-1,0-2.1,0.2-3.2,0.6c-1.1,0.4-2.2,0.9-3.2,1.7l-2.1-4.7c1-0.8,2.3-1.4,3.9-1.9
		c1.6-0.5,3.3-0.7,4.9-0.7c1.8,0,3.3,0.3,4.7,0.8c1.3,0.6,2.4,1.4,3.1,2.4c0.7,1,1.1,2.2,1.1,3.6c0,1.3-0.3,2.4-1,3.4
		c-0.7,1-1.6,1.7-2.9,2.1C194.3,457.6,195.4,458.4,196.2,459.4z"/>
	<path fill="#010101" stroke="#FFFFFF" d="M202.3,467.1c-1.6-2.2-2.5-5.4-2.5-9.5c0-4.1,0.8-7.2,2.5-9.4s4-3.3,7.1-3.3
		s5.4,1.1,7.1,3.3s2.5,5.3,2.5,9.4c0,4.2-0.8,7.3-2.5,9.5s-4,3.3-7.1,3.3S203.9,469.3,202.3,467.1z M211.8,463.6
		c0.5-1.2,0.7-3.2,0.7-6c0-2.7-0.2-4.7-0.7-5.9c-0.5-1.2-1.3-1.8-2.4-1.8s-1.9,0.6-2.4,1.8c-0.5,1.2-0.7,3.2-0.7,5.9
		c0,2.8,0.2,4.8,0.7,6c0.5,1.2,1.3,1.8,2.4,1.8S211.3,464.8,211.8,463.6z"/>
	<path fill="#010101" stroke="#FFFFFF" d="M228,463.5v4.1c0,1.5-0.3,2.9-0.8,4.1c-0.5,1.2-1.5,2.5-2.8,3.8l-2.3-1.9
		c1.3-1.3,2.1-2.5,2.3-3.6h-3v-6.5H228z"/>
	<path fill="#010101" stroke="#FFFFFF" d="M256,454.7c1.2,0.7,2.2,1.6,2.8,2.8c0.7,1.2,1,2.6,1,4.2c0,1.7-0.4,3.2-1.2,4.5
		c-0.8,1.3-2,2.3-3.5,3c-1.5,0.7-3.3,1-5.3,1c-1.6,0-3.2-0.2-4.8-0.7c-1.6-0.5-2.9-1.1-3.8-1.9l2-4.7c2.1,1.5,4.4,2.2,6.7,2.2
		c1.3,0,2.3-0.3,2.9-0.8c0.6-0.5,0.9-1.3,0.9-2.4c0-1.1-0.3-1.9-1-2.5c-0.7-0.6-1.6-0.9-2.8-0.9c-0.7,0-1.4,0.1-2.1,0.3
		c-0.8,0.2-1.5,0.5-2.1,0.9h-3.6v-14.8h16.5v5h-10.1v4.3c1-0.4,2.1-0.7,3.4-0.7C253.4,453.7,254.8,454,256,454.7z"/>
	<path fill="#010101" stroke="#FFFFFF" d="M264.1,467.1c-1.6-2.2-2.5-5.4-2.5-9.5c0-4.1,0.8-7.2,2.5-9.4c1.6-2.2,4-3.3,7.1-3.3
		s5.4,1.1,7.1,3.3c1.6,2.2,2.5,5.3,2.5,9.4c0,4.2-0.8,7.3-2.5,9.5c-1.6,2.2-4,3.3-7.1,3.3S265.7,469.3,264.1,467.1z M273.6,463.6
		c0.5-1.2,0.7-3.2,0.7-6c0-2.7-0.2-4.7-0.7-5.9c-0.5-1.2-1.3-1.8-2.4-1.8s-1.9,0.6-2.4,1.8c-0.5,1.2-0.7,3.2-0.7,5.9
		c0,2.8,0.2,4.8,0.7,6c0.5,1.2,1.3,1.8,2.4,1.8S273.1,464.8,273.6,463.6z"/>
	<path fill="#010101" stroke="#FFFFFF" d="M313.1,470l-2.2-5.1h-11.1l-2.2,5.1H291l11.7-24.9h5.2l11.7,24.9H313.1z M301.9,460h6.8
		l-3.4-7.9L301.9,460z"/>
	<path fill="#010101" stroke="#FFFFFF" d="M341.1,445.1h5.1V470h-5.7l0-11.4l-4.7,11.4h-4.2l-4.8-11.3V470h-5.7v-24.9h5.1l7.5,17
		L341.1,445.1z"/>
	<path fill="#010101" stroke="#FFFFFF" d="M350.8,445.1h11.9c2.8,0,5.1,0.7,6.6,2c1.6,1.4,2.3,3.2,2.3,5.5c0,2.3-0.8,4.2-2.4,5.5
		s-3.8,2.1-6.6,2.1h-5.3v9.7h-6.6V445.1z M361.8,455.4c2.5,0,3.7-0.9,3.7-2.6c0-0.9-0.3-1.6-0.9-2c-0.6-0.5-1.5-0.7-2.8-0.7h-4.4
		v5.3H361.8z"/>
	<path fill="#010101" stroke="#FFFFFF" d="M378.3,469.6c-1.8-0.5-3.3-1.2-4.4-2l2.1-4.7c1.2,0.8,2.5,1.4,3.9,1.8
		c1.4,0.4,2.7,0.6,4.1,0.6c1.4,0,2.5-0.2,3.2-0.6s1.1-0.9,1.1-1.6c0-0.6-0.3-1.1-1-1.6s-1.9-0.8-3.8-1.2c-2.4-0.5-4.2-1-5.5-1.7
		c-1.3-0.7-2.2-1.5-2.7-2.4c-0.5-0.9-0.8-2.1-0.8-3.4c0-1.5,0.4-2.9,1.3-4.1c0.9-1.2,2.1-2.2,3.6-2.9s3.3-1,5.4-1
		c1.8,0,3.5,0.3,5.2,0.8c1.7,0.5,3,1.2,4,2l-2,4.7c-1.1-0.8-2.3-1.4-3.5-1.8c-1.2-0.4-2.4-0.6-3.6-0.6c-1.2,0-2.1,0.2-2.9,0.7
		c-0.7,0.5-1.1,1.1-1.1,1.8c0,0.4,0.1,0.8,0.4,1c0.3,0.3,0.7,0.6,1.4,0.8c0.7,0.3,1.8,0.6,3.2,0.9c2.3,0.5,4,1.1,5.3,1.8
		c1.3,0.7,2.2,1.5,2.7,2.4c0.5,0.9,0.8,2,0.8,3.3c0,2.4-0.9,4.3-2.8,5.7c-1.9,1.4-4.5,2.1-8,2.1
		C381.9,470.4,380.1,470.1,378.3,469.6z"/>
</g>
</svg>
